PathFileType	4	(X/Y/Z)	Patient4_TMGait_0pt7_01_left_41.trc.trc
DataRate	CameraRate	NumFrames	NumMarkers	Units	OrigDataRate	OrigDataStartFrame	OrigNumFrames
86.419753086420	86.419753086420	5	33	mm	86.419753086420	36	       141
Frame#	Time	Sacral			L.Shoulder			Chest			R.Shoulder			Neck			R.ASIS			L.ASIS			R.Thigh.Superior			R.Thigh.Lateral			R.Thigh.Inferior			R.Patella			L.Thigh.Superior			L.Thigh.Lateral			L.Thigh.Inferior			L.Patella			L.Shank.Superior			L.Shank.Lateral			L.Shank.Inferior			R.Shank.Superior			R.Shank.Lateral			R.Shank.Inferior			R.Heel			R.Midfoot.Superior			R.Midfoot.Lateral			R.Toe			L.Heel			L.Midfoot.Lateral			L.Midfoot.Superior			L.Toe			L.Elbow			L.Wrist			R.Elbow			R.Wrist			
		X1	Y1	Z1	X2	Y2	Z2	X3	Y3	Z3	X4	Y4	Z4	X5	Y5	Z5	X6	Y6	Z6	X7	Y7	Z7	X8	Y8	Z8	X9	Y9	Z9	X10	Y10	Z10	X11	Y11	Z11	X12	Y12	Z12	X13	Y13	Z13	X14	Y14	Z14	X15	Y15	Z15	X16	Y16	Z16	X17	Y17	Z17	X18	Y18	Z18	X19	Y19	Z19	X20	Y20	Z20	X21	Y21	Z21	X22	Y22	Z22	X23	Y23	Z23	X24	Y24	Z24	X25	Y25	Z25	X26	Y26	Z26	X27	Y27	Z27	X28	Y28	Z28	X29	Y29	Z29	X30	Y30	Z30	X31	Y31	Z31	X32	Y32	Z32	X33	Y33	Z33	

36	47.875000000000	856.037626077404	1011.212045332794	460.479845261331	1044.561934051500	1424.717262596405	271.439219128352	1159.311366116966	1346.761935474344	421.556459462830	1099.515486446479	1428.531023859122	601.065275291189	1069.792659873086	1484.135728365267	424.472881463567	1079.583257253135	933.466127995368	570.052377731826	1062.171503772798	949.033619093260	296.283932383306	1079.837273789015	721.430909311661	553.785893586360	973.904068190204	628.245597439311	612.587011887116	1044.237561315018	558.061618731982	541.213479340472	1021.726275259589	458.415637911315	555.721541171726	1133.256448593328	766.835905716819	332.570160443729	1068.743416654500	637.488045266995	266.623395320757	1166.671165909543	574.399580361789	328.706490513860	1179.258543086677	504.060320936837	334.963119490603	1161.079638301106	429.531875194457	326.736942440200	1085.735592127527	304.630203650299	276.944983937003	1155.660007068557	200.616255391540	344.551492624877	954.132743593691	390.379114264412	559.179718716946	839.584957252833	330.295208941833	614.289877564209	847.129021183994	221.178904961569	560.005544124693	661.831072285695	104.946249595606	522.475314133174	839.772412897647	107.240809091654	568.034883260345	735.520185890468	68.342670215301	597.305895734796	935.780367535483	34.296678272933	592.630607805184	1047.568851295260	38.703404158630	389.458777280613	1120.218714082930	36.231875498630	307.030251343406	1202.450692700544	98.698599180231	332.019770201310	1331.129202753076	48.228270253228	302.600018474044	885.824279883463	1112.605491703380	172.153586581716	848.438641172947	852.460971559830	181.248731677478	1180.357179894678	1108.683875791937	741.840186567559	1353.948395505127	1235.711359853462	620.164373931953	
37	47.886571428571	856.833407917890	1012.650564442538	457.598772884025	1045.873471647969	1426.278660157885	268.952787229243	1160.237829184424	1348.421147556738	419.331222435961	1099.972260019269	1430.258381364954	598.634912923391	1070.534890434501	1485.658952671279	421.987966108646	1080.100079408971	935.079269991994	567.233461834752	1063.256517249616	950.568905008892	293.660243862672	1085.197721549869	723.659242827423	551.520405330998	982.452756348280	628.162349981001	611.003484238662	1054.901720494476	559.107373696579	539.713461856122	1033.593599906960	457.323714077743	555.730775974691	1133.296826126283	766.628273769258	328.903443603198	1066.065120401105	637.646422240521	264.967874499294	1163.644334195343	573.664543217360	326.617381356322	1175.485996742661	503.541491428188	333.843095103925	1156.780129773884	429.131338484835	325.765715237204	1080.435584517140	304.827137372846	276.059684584096	1148.925655287600	200.312855982140	344.241082923628	963.022140293526	390.688981411740	558.793630493613	846.076287137630	335.306304078595	613.754792028998	849.564433347469	225.870202264161	560.211399617703	660.107097395386	118.893960130281	522.488571488385	837.239891654871	110.756401921218	568.740543211987	731.091347570637	77.387350494241	597.106556370402	928.083669202488	33.203406116157	592.847713422679	1039.539954942453	38.672217488203	389.346422867539	1112.132532970277	36.240313467999	306.871272077502	1194.350927423315	98.715044774244	331.890231317744	1323.027619691690	48.314110200639	302.316370287452	892.596948684209	1111.209577404412	167.998004295856	862.504927423280	850.119613554286	174.843802559838	1170.318183539045	1108.472418447509	742.292032797919	1348.967646804435	1228.894994977547	621.209137212409	
38	47.898142857143	857.421748677782	1013.878394167372	454.793934807356	1047.237307203910	1427.711155836098	266.466398389194	1161.037768934878	1349.969120104031	417.238421200033	1100.076120128475	1431.899514511710	596.260256041445	1071.111369034150	1487.055315207094	419.497260466184	1080.464486551216	936.597716762187	564.645162665563	1064.171675058603	951.930590336078	291.250365539596	1091.121752209773	726.140903649951	549.376303129759	991.979950273999	628.137845988423	609.531423976950	1066.567081958628	560.432037633895	538.231942438935	1046.618708367805	456.598486588561	555.527150117990	1132.898761290040	765.978421990711	325.240961626485	1062.891249079270	637.622950769984	263.332476533124	1160.071676375867	572.752146202778	324.636889085547	1171.147243005901	502.887584136624	332.693936888302	1151.968207494960	428.648890427387	324.740491546426	1074.710062408603	304.856411145381	275.255432604125	1141.973091446066	199.962908464028	343.920762779352	973.195406399044	391.219911547560	558.260619643126	854.032789641412	340.719674441476	613.162485681438	853.188480621958	231.201482499065	560.275104252676	659.904550736891	134.293744120155	522.379612872586	835.615701679132	115.114934825262	569.222698339724	727.763971940392	87.849356015162	596.800874920369	920.841744506864	32.211472048957	593.044458534065	1031.440845706401	38.624375057219	389.291728718109	1103.983100699571	36.193426480142	306.775891985642	1186.223848842591	98.651083806288	331.815239503352	1314.901054373374	48.227878041579	302.123377271379	899.487727723967	1109.834035745364	163.770066021112	877.428362116379	847.950807300222	168.438127016188	1159.515191791744	1108.337740086027	742.503628567735	1344.130237978945	1220.625664779524	622.448508372061	
39	47.909714285714	857.795348365344	1014.841057763881	452.118058458852	1048.621428316989	1428.953640358658	264.004507734614	1161.693101134699	1351.356264510482	415.308172083493	1099.814118037089	1433.417597916194	593.970932518351	1071.521644896021	1488.285285323206	417.020132851764	1080.699643829665	937.954021947304	562.304044576432	1064.882646181179	953.107960482246	289.058600416171	1097.477310771485	728.879083359065	547.300996658102	1002.334434111184	628.265100544951	608.160111888554	1078.994605593998	562.111157772111	536.728580650930	1060.590920875344	456.347481498466	555.067473670152	1132.080761651110	765.005000941965	321.715878798102	1059.421551474498	637.523622990156	261.681346119208	1156.089536250652	571.752550474457	322.767483910407	1166.361349456712	502.144201917418	331.477944765139	1146.763731362742	428.110407809000	323.650170305050	1068.684284896134	304.757303616247	274.450576524671	1134.871233880641	199.582444172501	343.565192125332	984.491313634834	392.046811077217	557.566297379073	863.322529883688	346.520898319482	612.488573408051	857.992260220870	237.151060821231	560.178352639030	661.325494546342	150.830095671701	522.171539349135	835.022701116096	120.340064941811	569.424266707360	725.749305652236	99.562438259740	596.401282597195	914.328369521117	31.512068072816	593.148768364283	1023.294220718413	38.576446845632	389.261310329358	1095.798307458040	36.105784573215	306.715785915659	1178.097757069654	98.517104325369	331.770012183321	1306.775572976738	47.980071529112	302.008307056933	906.508289133918	1108.424651027442	159.453110389424	893.185715693850	845.958357306390	162.080648575738	1148.070469641287	1108.256326031084	742.404382975432	1339.358897723606	1210.850118555291	623.928744029520	
40	47.921285714286	857.957641428574	1015.519872240146	449.610229627969	1049.977869997337	1429.971249165036	261.598745715328	1162.189201071168	1352.556589203604	413.563231269621	1099.197717694309	1434.791607687351	591.797685231622	1071.773637939441	1489.332538390999	414.586968626439	1080.831565077605	939.107878604109	560.203515187536	1065.369896535396	954.116211239754	287.069336911720	1104.097811140082	731.882150030754	545.226010129310	1013.320295645838	628.649246998226	606.878774791339	1091.915339134135	564.225814431899	535.174009470259	1075.278633444795	456.673945539527	554.353315601318	1130.880480583361	763.840728385534	318.423810096737	1055.813681244242	637.430732032459	259.995930646656	1151.827422543549	570.738716683974	320.993275852106	1161.253971463481	501.353954601617	330.174570820353	1141.285078342440	427.541117436707	322.492115966851	1062.462591841304	304.573611937403	273.595127587470	1127.679832026987	199.188464639041	343.157005021634	996.720014743564	393.248909316618	556.725191221342	873.771500330682	352.677703910179	611.723678934915	863.954762556052	243.657611720174	559.921243604382	664.418361187639	168.069604853943	521.896675062323	835.601155031392	126.388878346450	569.310352344916	725.248686771684	112.239355908331	595.924594690456	908.874418778391	31.331926784671	593.075139221221	1015.123123173601	38.540036912714	389.228685321938	1087.602110655728	35.993897494062	306.667136168175	1169.990422485112	98.332117639682	331.730871873191	1298.668169077012	47.604600244796	301.948336884154	913.694158086288	1106.938280358699	155.036033562160	909.763532392059	844.157193525233	155.816407869169	1136.117885325913	1108.209661839157	741.929730533184	1334.550460250413	1199.525318546431	625.701010634429	
